<svg width="120" height="30" viewBox="0 0 120 30" fill="none" xmlns="http://www.w3.org/2000/svg">
<path d="M21.6921 25C19.9279 25 18.4266 24.5759 17.1883 23.7277C15.9669 22.8796 15.2375 21.6412 15 20.0127H18.028C18.2316 20.827 18.6472 21.4546 19.2748 21.8957C19.9025 22.3367 20.7082 22.5573 21.6921 22.5573C22.5233 22.5573 23.1849 22.4046 23.6768 22.0992C24.1858 21.7769 24.4402 21.3274 24.4402 20.7506C24.4402 20.2926 24.279 19.9279 23.9567 19.6565C23.6514 19.3851 23.2612 19.1815 22.7863 19.0458C22.3282 18.8931 21.6921 18.732 20.8779 18.5623C19.7583 18.3418 18.8422 18.1128 18.1298 17.8753C17.4343 17.6378 16.8321 17.2477 16.3232 16.7048C15.8312 16.145 15.5852 15.3817 15.5852 14.4148C15.5852 13.0577 16.0941 12.0229 17.112 11.3104C18.1298 10.598 19.419 10.2417 20.9796 10.2417C22.6081 10.2417 23.9652 10.6573 25.0509 11.4885C26.1366 12.3198 26.8066 13.4733 27.0611 14.9491H24.2366C24.0331 14.1858 23.6429 13.6175 23.0662 13.2443C22.4894 12.8541 21.7939 12.659 20.9796 12.659C20.2163 12.659 19.6141 12.8032 19.173 13.0916C18.732 13.38 18.5115 13.7701 18.5115 14.2621C18.5115 14.6692 18.6556 15 18.944 15.2545C19.2494 15.4919 19.6226 15.6785 20.0636 15.8142C20.5216 15.933 21.1493 16.0687 21.9466 16.2214C23.0831 16.4249 24.0161 16.6539 24.7455 16.9084C25.475 17.1628 26.1026 17.5785 26.6285 18.1552C27.1544 18.715 27.4173 19.4953 27.4173 20.4962C27.4173 21.8702 26.9084 22.9644 25.8906 23.7786C24.8728 24.5929 23.4733 25 21.6921 25Z" fill="black"/>
<path d="M35.4157 25C34.0247 25 32.7948 24.6862 31.7261 24.0585C30.6574 23.4309 29.8262 22.5573 29.2325 21.4377C28.6387 20.3011 28.3419 19.0034 28.3419 17.5445C28.3419 16.1366 28.6387 14.8813 29.2325 13.7786C29.8262 12.659 30.6574 11.7939 31.7261 11.1832C32.7948 10.5556 34.0247 10.2417 35.4157 10.2417C37.0951 10.2417 38.5115 10.6658 39.665 11.514C40.8355 12.3622 41.5904 13.5157 41.9297 14.9746H38.6727C38.4352 14.2621 38.0281 13.7108 37.4513 13.3206C36.8915 12.9304 36.213 12.7354 35.4157 12.7354C34.6353 12.7354 33.9398 12.9389 33.3292 13.3461C32.7185 13.7362 32.2435 14.296 31.9042 15.0254C31.565 15.7549 31.3953 16.5946 31.3953 17.5445C31.3953 18.5284 31.565 19.3936 31.9042 20.1399C32.2435 20.8863 32.7185 21.4631 33.3292 21.8702C33.9398 22.2774 34.6353 22.4809 35.4157 22.4809C36.2808 22.4809 37.0018 22.2604 37.5785 21.8193C38.1722 21.3783 38.5624 20.7761 38.749 20.0127H42.006C41.6837 21.5734 40.9288 22.7947 39.7414 23.6768C38.5539 24.5589 37.112 25 35.4157 25Z" fill="black"/>
<path d="M43.2848 24.7201V5.30534H46.2874V12.43C46.8811 11.6158 47.4918 11.0475 48.1194 10.7252C48.764 10.4029 49.485 10.2417 50.2823 10.2417C52.4027 10.2417 53.8531 11.0136 54.6334 12.5573C54.9048 13.117 55.0745 13.6853 55.1423 14.2621C55.2102 14.8388 55.2441 15.5513 55.2441 16.3995V24.7201H52.2416V16.3995C52.2416 14.9746 51.9956 13.9907 51.5037 13.4478C51.0965 12.9898 50.4519 12.7608 49.5698 12.7608C48.552 12.7608 47.7886 13.0662 47.2797 13.6768C46.9405 14.067 46.686 14.5929 46.5164 15.2545C46.3637 15.8991 46.2874 16.7727 46.2874 17.8753V24.7201H43.2848Z" fill="black"/>
<path d="M57.1704 24.7201V10.4962H60.173V12.43C60.7667 11.6497 61.3774 11.0899 62.005 10.7506C62.6496 10.4114 63.3621 10.2417 64.1424 10.2417C65.0924 10.2417 65.9066 10.4453 66.5852 10.8524C67.2637 11.2595 67.7217 11.8533 67.9592 12.6336C68.8074 11.039 70.2238 10.2417 72.2086 10.2417C73.7862 10.2417 74.9651 10.6913 75.7455 11.5903C76.5258 12.4894 76.916 13.7617 76.916 15.4071V24.7201H73.9134V15.8651C73.9134 14.8473 73.7014 14.0755 73.2773 13.5496C72.8532 13.0237 72.251 12.7608 71.4707 12.7608C70.6394 12.7608 69.9948 13.0153 69.5368 13.5242C69.1636 13.9313 68.9007 14.4572 68.748 15.1018C68.6123 15.7464 68.5444 16.5691 68.5444 17.57V24.7201H65.5419V15.8651C65.5419 14.8473 65.3214 14.0755 64.8803 13.5496C64.4562 13.0237 63.8456 12.7608 63.0483 12.7608C62.234 12.7608 61.6064 13.0322 61.1653 13.5751C60.826 13.9483 60.5716 14.4487 60.402 15.0763C60.2493 15.704 60.173 16.5352 60.173 17.57V24.7201H57.1704Z" fill="#4743C5"/>
<path d="M81.8362 24.7201H78.8337V10.4962H81.8362V24.7201ZM80.335 8.66412C79.7921 8.66412 79.3256 8.49449 78.9355 8.15522C78.5623 7.79898 78.3757 7.35793 78.3757 6.83206C78.3757 6.30619 78.5623 5.87362 78.9355 5.53435C79.3256 5.17812 79.7921 5 80.335 5C80.8948 5 81.3613 5.17812 81.7345 5.53435C82.1077 5.87362 82.2943 6.30619 82.2943 6.83206C82.2943 7.35793 82.1077 7.79898 81.7345 8.15522C81.3613 8.49449 80.8948 8.66412 80.335 8.66412Z" fill="#4743C5"/>
<path d="M83.8482 24.7201V10.4962H86.8507V12.43C87.4445 11.6158 88.0552 11.0475 88.6828 10.7252C89.3105 10.4029 90.0229 10.2417 90.8202 10.2417C92.9576 10.2417 94.408 11.0136 95.1713 12.5573C95.4597 13.117 95.6379 13.6853 95.7057 14.2621C95.7736 14.8388 95.8075 15.5513 95.8075 16.3995V24.7201H92.7795V16.3995C92.7795 15.6531 92.7201 15.0424 92.6014 14.5674C92.4996 14.0925 92.3215 13.7193 92.067 13.4478C91.6599 12.9898 91.0153 12.7608 90.1332 12.7608C89.0984 12.7608 88.3266 13.0662 87.8177 13.6768C87.4784 14.067 87.2324 14.5844 87.0798 15.229C86.9271 15.8736 86.8507 16.7557 86.8507 17.8753V24.7201H83.8482Z" fill="#4743C5"/>
<path d="M101.864 24.7201C100.761 24.7201 99.9298 24.4656 99.37 23.9567C98.8102 23.4478 98.5303 22.6081 98.5303 21.4377V12.9898H96.3929V10.4962H98.5303V5.30534H101.533V10.4962H104.434V12.9898H101.533V20.598C101.533 21.1408 101.618 21.5479 101.787 21.8193C101.957 22.0738 102.33 22.201 102.907 22.201H104.408V24.7201H101.864Z" fill="#4743C5"/>
</svg>
