<svg width="33" height="32" viewBox="0 0 33 32" fill="none" xmlns="http://www.w3.org/2000/svg">
<rect x="0.00708008" width="32" height="32" rx="2" fill="#F7FAFF"/>
<path d="M8.47078 21.2694C7.21565 21.2694 6.14758 20.9676 5.26657 20.3642C4.39763 19.7608 3.87868 18.8798 3.70972 17.7212H5.86396C6.00879 18.3005 6.30447 18.747 6.75101 19.0608C7.19754 19.3746 7.7708 19.5315 8.47078 19.5315C9.06214 19.5315 9.53282 19.4229 9.88281 19.2056C10.2449 18.9763 10.4259 18.6565 10.4259 18.2462C10.4259 17.9203 10.3112 17.6608 10.0819 17.4677C9.86471 17.2746 9.58713 17.1298 9.24921 17.0333C8.92335 16.9247 8.47078 16.81 7.89149 16.6893C7.09496 16.5324 6.44326 16.3695 5.93637 16.2005C5.44156 16.0316 5.01313 15.754 4.65107 15.3678C4.30108 14.9695 4.12608 14.4265 4.12608 13.7385C4.12608 12.7731 4.48814 12.0369 5.21226 11.53C5.93637 11.0231 6.85359 10.7697 7.9639 10.7697C9.12249 10.7697 10.088 11.0654 10.8604 11.6567C11.6328 12.2481 12.1095 13.0687 12.2905 14.1187H10.2811C10.1362 13.5756 9.85867 13.1713 9.44834 12.9058C9.03801 12.6282 8.54319 12.4894 7.9639 12.4894C7.42081 12.4894 6.99238 12.592 6.67859 12.7972C6.36481 13.0024 6.20792 13.2799 6.20792 13.6299C6.20792 13.9196 6.3105 14.1549 6.51567 14.3359C6.7329 14.5049 6.99841 14.6377 7.3122 14.7342C7.63805 14.8187 8.08459 14.9152 8.65181 15.0239C9.46041 15.1687 10.1242 15.3316 10.6431 15.5126C11.1621 15.6937 11.6086 15.9893 11.9827 16.3997C12.3569 16.7979 12.5439 17.3531 12.5439 18.0651C12.5439 19.0427 12.1819 19.8211 11.4578 20.4004C10.7336 20.9797 9.73799 21.2694 8.47078 21.2694Z" fill="black"/>
<path d="M14.2564 21.0312V10.9117H16.3925V12.2875C16.8149 11.7323 17.2494 11.3341 17.6959 11.0927C18.1545 10.8513 18.6614 10.7307 19.2166 10.7307C19.8924 10.7307 20.4717 10.8755 20.9544 11.1651C21.4372 11.4548 21.763 11.8772 21.932 12.4323C22.5354 11.2979 23.5431 10.7307 24.9552 10.7307C26.0776 10.7307 26.9163 11.0505 27.4715 11.6901C28.0266 12.3297 28.3042 13.2349 28.3042 14.4055V21.0312H26.1681V14.7314C26.1681 14.0073 26.0172 13.4582 25.7155 13.084C25.4138 12.7099 24.9853 12.5228 24.4302 12.5228C23.8388 12.5228 23.3802 12.7039 23.0544 13.0659C22.7889 13.3556 22.6018 13.7297 22.4932 14.1883C22.3966 14.6469 22.3484 15.2322 22.3484 15.9443V21.0312H20.2122V14.7314C20.2122 14.0073 20.0553 13.4582 19.7415 13.084C19.4398 12.7099 19.0054 12.5228 18.4381 12.5228C17.8588 12.5228 17.4123 12.7159 17.0985 13.1021C16.8571 13.3676 16.6761 13.7237 16.5554 14.1702C16.4468 14.6167 16.3925 15.2081 16.3925 15.9443V21.0312H14.2564Z" fill="#4743C5"/>
</svg>
